<svg height="512pt" viewBox="0 0 512 512" width="512pt" xmlns="http://www.w3.org/2000/svg" xmlns:xlink="http://www.w3.org/1999/xlink"><linearGradient id="a" gradientUnits="userSpaceOnUse" x1="0" x2="512" y1="256" y2="256"><stop offset="0" stop-color="#00f38d"/><stop offset="1" stop-color="#009eff"/></linearGradient><path d="m512 256c0 141.386719-114.613281 256-256 256s-256-114.613281-256-256 114.613281-256 256-256 256 114.613281 256 256zm0 0" fill="url(#a)"/><g fill="#fff"><path d="m317.332031 197.394531v-24.535156h-25.894531c-.171875 0-.34375 0-.515625 0-20.863281 0-53.957031 5.605469-76.160156 18.648437l-18.175781-18.179687-21.214844 21.214844 17.796875 17.796875c-13.921875 21.789062-20.410157 54.296875-20.308594 74.328125v24.53125h25.214844c1.535156-7.285157 3.613281-37.582031 27.25-67.085938l96.414062 96.109375 21.179688-21.246094-96.191407-95.886718c32.113282-24.820313 64.539063-24.644532 70.605469-25.695313zm0 0"/><path d="m430.460938 189.222656v-30h-35.261719c-4.480469-21.207031-21.214844-37.941406-42.421875-42.421875v-35.261719h-30v34.066407h-24.519532v-34.066407h-30v34.066407h-24.515624v-34.066407h-30v34.066407h-24.519532v-34.066407h-30v35.261719c-21.207031 4.480469-37.941406 21.214844-42.421875 42.421875h-35.261719v30h34.066407v24.519532h-34.066407v30h34.066407v24.519531h-34.066407v30h34.066407v24.515625h-34.066407v30h35.261719c4.480469 21.207031 21.214844 37.941406 42.421875 42.421875v35.257812h30v-34.066406h24.519532v34.066406h30v-34.066406h24.519531v34.066406h30v-34.066406h24.515625v34.066406h30v-35.257812c21.207031-4.480469 37.941406-21.214844 42.421875-42.421875h35.261719v-30h-34.066407v-24.515625h34.066407v-30h-34.066407v-24.519531h34.066407v-30h-34.066407v-24.519532zm-64.066407 152.167969c0 13.785156-11.214843 25-25 25h-170.789062c-13.785157 0-25-11.214844-25-25v-170.78125c0-13.785156 11.214843-25 25-25h170.785156c13.785156 0 25 11.214844 25 25v170.78125zm0 0"/></g></svg>